<svg id="visual" viewBox="0 0 900 600" width="900" height="600" xmlns="http://www.w3.org/2000/svg" xmlns:xlink="http://www.w3.org/1999/xlink" version="1.1"><rect x="0" y="0" width="900" height="600" fill="#001"></rect><defs><linearGradient id="grad1_0" x1="33.3%" y1="0%" x2="100%" y2="100%"><stop offset="20%" stop-color="#000011" stop-opacity="1"></stop><stop offset="80%" stop-color="#000011" stop-opacity="1"></stop></linearGradient></defs><defs><linearGradient id="grad2_0" x1="0%" y1="0%" x2="66.7%" y2="100%"><stop offset="20%" stop-color="#000011" stop-opacity="1"></stop><stop offset="80%" stop-color="#000011" stop-opacity="1"></stop></linearGradient></defs><g transform="translate(900, 0)"><path d="M0 486.7C-59.3 464.2 -118.5 441.7 -172.2 415.7C-225.9 389.7 -274.1 360.2 -323.1 323.1C-372.2 286.1 -422.3 241.4 -449.7 186.3C-477.1 131.1 -481.9 65.6 -486.7 0L0 0Z" fill="#0059fc"></path></g><g transform="translate(0, 600)"><path d="M0 -486.7C47.7 -445.4 95.4 -404.1 160.7 -388C226.1 -372 309 -381.3 344.2 -344.2C379.3 -307.1 366.7 -223.5 382.5 -158.4C398.3 -93.3 442.5 -46.7 486.7 0L0 0Z" fill="#0059fc"></path></g></svg>